<svg xmlns="http://www.w3.org/2000/svg" viewBox="-312.05208256287,-316.6358780394735,614.0904708862349,635.3835037433375" xoverflow="visible" width="100%" style="height: 95vh;"><defs><marker id="arrow" viewBox="0 0 10 10" refX="15" refY="5" orient="auto-start-reverse" markerWidth="6" markerHeight="6" xoverflow="visible"><path d="M 0 0 L 10 5 L 0 10 z"></path></marker></defs><g stroke="#666" stroke-opacity="0.9"><line stroke-width="1.5" marker-end="url(#arrow)" x1="-89.83994572260367" y1="30.83445351306826" x2="-121.13246654054561" y2="20.77567400759643"></line><line stroke-width="1.5" marker-end="url(#arrow)" x1="258.82293480267674" y1="146.49951652590934" x2="228.8922939310875" y2="137.24522821932405"></line><line stroke-width="1.5" marker-end="url(#arrow)" x1="31.08048589611188" y1="-111.54855416498549" x2="10.320741634201752" y2="-134.63716286118515"></line><line stroke-width="1.5" marker-end="url(#arrow)" x1="39.00778621895539" y1="275.15903452109984" x2="9.215517527717743" y2="285.0347221159679"></line><line stroke-width="1.5" marker-end="url(#arrow)" x1="-273.0906243753947" y1="-125.45896302594224" x2="-284.7904641430007" y2="-93.67315974893458"></line><line stroke-width="1.5" marker-end="url(#arrow)" x1="33.974904351130846" y1="99.30603485349813" x2="48.046765929736594" y2="128.52338660761387"></line><line stroke-width="1.5" marker-end="url(#arrow)" x1="63.64451570804444" y1="-111.42353505247793" x2="10.320741634201752" y2="-134.63716286118515"></line><line stroke-width="1.5" marker-end="url(#arrow)" x1="224.16116319834006" y1="4.693792207118625" x2="225.83991900784125" y2="36.23713636313711"></line><line stroke-width="1.5" marker-end="url(#arrow)" x1="-31.721057514427326" y1="-157.0331706140548" x2="-55.256223501637315" y2="-179.36150447386078"></line><line stroke-width="1.5" marker-end="url(#arrow)" x1="75.13989786434908" y1="-215.36559371427418" x2="73.2086447193464" y2="-178.4297308404835"></line><line stroke-width="1.5" marker-end="url(#arrow)" x1="134.72761188669716" y1="118.88512763227567" x2="150.8399123379381" y2="149.36780931903672"></line><line stroke-width="1.5" marker-end="url(#arrow)" x1="-93.07205661283278" y1="111.63280401185978" x2="-128.6782797113273" y2="113.09780120810667"></line><line stroke-width="1.5" marker-end="url(#arrow)" x1="-181.62707846008428" y1="-123.30905218756273" x2="-216.41090264335065" y2="-123.31367051929398"></line><line stroke-width="1.5" marker-end="url(#arrow)" x1="-80.49700381881595" y1="76.00450409425225" x2="-104.20179283650697" y2="54.529607896286706"></line><line stroke-width="1.5" marker-end="url(#arrow)" x1="95.0871342824179" y1="161.5362952791585" x2="121.59366163714675" y2="147.16281946980163"></line><line stroke-width="1.5" marker-end="url(#arrow)" x1="-127.28744919200795" y1="-66.19136389297111" x2="-162.41832205661868" y2="-53.95905812674177"></line><line stroke-width="1.5" marker-end="url(#arrow)" x1="103.86996781070329" y1="112.65626390485919" x2="134.72761188669716" y2="118.88512763227567"></line><line stroke-width="1.5" marker-end="url(#arrow)" x1="-219.2282966812721" y1="26.723622327640083" x2="-202.93198274474508" y2="-1.773844869243576"></line><line stroke-width="1.5" marker-end="url(#arrow)" x1="73.2086447193464" y1="-178.4297308404835" x2="10.320741634201752" y2="-134.63716286118515"></line><line stroke-width="1.5" marker-end="url(#arrow)" x1="-216.41090264335065" y1="-123.31367051929398" x2="-245.3469847008483" y2="-134.61557684948616"></line><line stroke-width="1.5" marker-end="url(#arrow)" x1="109.11955617593178" y1="65.72955285976833" x2="80.21257397025644" y2="50.668699506794916"></line><line stroke-width="1.5" marker-end="url(#arrow)" x1="-255.18318884468775" y1="93.40558440334638" x2="-281.1195768742947" y2="110.01904285069062"></line><line stroke-width="1.5" marker-end="url(#arrow)" x1="185.27334102964804" y1="-44.803677015744505" x2="158.08974896705027" y2="-62.90786169925581"></line><line stroke-width="1.5" marker-end="url(#arrow)" x1="-231.37462053112588" y1="143.75230807583006" x2="-262.124705515008" y2="140.92592628321412"></line><line stroke-width="1.5" marker-end="url(#arrow)" x1="83.60268545171263" y1="-81.08957672225105" x2="63.64451570804444" y2="-111.42353505247793"></line><line stroke-width="1.5" marker-end="url(#arrow)" x1="168.75491881109326" y1="-112.71430663706518" x2="195.00601238914714" y2="-132.04727833462704"></line><line stroke-width="1.5" marker-end="url(#arrow)" x1="-74.22180306078118" y1="156.3480913934173" x2="-105.49425423773833" y2="159.02177147353686"></line><line stroke-width="1.5" marker-end="url(#arrow)" x1="-6.490070965484571" y1="256.01296482827036" x2="-33.63310647600942" y2="241.86280703571617"></line><line stroke-width="1.5" marker-end="url(#arrow)" x1="-42.947320531417006" y1="212.6344236158375" x2="-33.63310647600942" y2="241.86280703571617"></line><line stroke-width="1.5" marker-end="url(#arrow)" x1="33.052092140666524" y1="-19.564056447480226" x2="7.624636619331828" y2="-40.16946975122767"></line><line stroke-width="1.5" marker-end="url(#arrow)" x1="-65.23632051481576" y1="-278.9683473823609" x2="-34.17751272678653" y2="-264.9759498267433"></line><line stroke-width="1.5" marker-end="url(#arrow)" x1="-148.01805822564853" y1="-199.18873189324896" x2="-147.62179096438638" y2="-153.3850944953022"></line><line stroke-width="1.5" marker-end="url(#arrow)" x1="-220.32715923542992" y1="-67.31580816798963" x2="-200.68814780875007" y2="-38.93086596399016"></line><line stroke-width="1.5" marker-end="url(#arrow)" x1="-156.67727562261544" y1="75.40567243967911" x2="-142.59555238849734" y2="47.543032774973746"></line><line stroke-width="1.5" marker-end="url(#arrow)" x1="-262.124705515008" y1="140.92592628321412" x2="-242.3737667829148" y2="117.04808484679451"></line><line stroke-width="1.5" marker-end="url(#arrow)" x1="-302.05208256287" y1="-25.456350134649497" x2="-300.5014629180787" y2="8.304144808548099"></line><line stroke-width="1.5" marker-end="url(#arrow)" x1="-57.124875499688784" y1="-74.94653727590783" x2="-27.907269153139428" y2="-98.0265681951971"></line><line stroke-width="1.5" marker-end="url(#arrow)" x1="-76.45019171620494" y1="3.733593645949768" x2="-89.83994572260367" y2="30.83445351306826"></line><line stroke-width="1.5" marker-end="url(#arrow)" x1="-177.01383590221806" y1="-155.13659014712132" x2="-147.62179096438638" y2="-153.3850944953022"></line><line stroke-width="1.5" marker-end="url(#arrow)" x1="260.77183772056003" y1="90.77177692825128" x2="251.77183844024432" y2="60.30695940024671"></line><line stroke-width="1.5" marker-end="url(#arrow)" x1="-247.55865449815113" y1="-83.19131831372563" x2="-220.32715923542992" y2="-67.31580816798963"></line><line stroke-width="1.5" marker-end="url(#arrow)" x1="104.91591345274018" y1="-196.94716470800302" x2="73.2086447193464" y2="-178.4297308404835"></line><line stroke-width="1.5" marker-end="url(#arrow)" x1="-300.5014629180787" y1="8.304144808548099" x2="-294.97773459691194" y2="39.17705015681408"></line><line stroke-width="1.5" marker-end="url(#arrow)" x1="158.08974896705027" y1="-62.90786169925581" x2="196.33583550825117" y2="-68.3226514632322"></line><line stroke-width="1.5" marker-end="url(#arrow)" x1="108.78465117985756" y1="-176.43302479761394" x2="73.2086447193464" y2="-178.4297308404835"></line><line stroke-width="1.5" marker-end="url(#arrow)" x1="156.2086693810018" y1="-220.68001352969475" x2="182.59406260060712" y2="-201.61265981630075"></line><line stroke-width="1.5" marker-end="url(#arrow)" x1="-181.92288551810432" y1="-216.70526719590077" x2="-171.70117650789965" y2="-185.82482160335965"></line><line stroke-width="1.5" marker-end="url(#arrow)" x1="23.172912462889002" y1="-8.18743633261694" x2="7.624636619331828" y2="-40.16946975122767"></line><line stroke-width="1.5" marker-end="url(#arrow)" x1="-25.516168601279983" y1="-27.580302757465912" x2="7.624636619331828" y2="-40.16946975122767"></line><line stroke-width="1.5" marker-end="url(#arrow)" x1="-152.4360884879809" y1="257.2628697180549" x2="-179.89296515332222" y2="242.54568405865732"></line><line stroke-width="1.5" marker-end="url(#arrow)" x1="-131.20666912245895" y1="210.96438246716545" x2="-157.81996124312468" y2="195.4171340032693"></line><line stroke-width="1.5" marker-end="url(#arrow)" x1="196.33583550825117" y1="-68.3226514632322" x2="227.34526711705976" y2="-90.21708460794828"></line><line stroke-width="1.5" marker-end="url(#arrow)" x1="-25.99111575426197" y1="274.1343192116899" x2="-58.35060001528987" y2="262.10232916949974"></line><line stroke-width="1.5" marker-end="url(#arrow)" x1="28.17567512971287" y1="308.74762570386406" x2="9.215517527717743" y2="285.0347221159679"></line><line stroke-width="1.5" marker-end="url(#arrow)" x1="-20.073228577148342" y1="125.96264962101813" x2="4.84728784982529" y2="147.07611751401365"></line><line stroke-width="1.5" marker-end="url(#arrow)" x1="-55.256223501637315" y1="-179.36150447386078" x2="10.320741634201752" y2="-134.63716286118515"></line><line stroke-width="1.5" marker-end="url(#arrow)" x1="-84.36782004803315" y1="136.52698078293517" x2="-105.49425423773833" y2="159.02177147353686"></line><line stroke-width="1.5" marker-end="url(#arrow)" x1="179.35995535179202" y1="-14.301707410217823" x2="185.27334102964804" y2="-44.803677015744505"></line><line stroke-width="1.5" marker-end="url(#arrow)" x1="31.126368307770406" y1="-82.13137886603047" x2="31.08048589611188" y2="-111.54855416498549"></line><line stroke-width="1.5" marker-end="url(#arrow)" x1="177.88845014805906" y1="156.16743633442115" x2="186.92438035045" y2="186.1738448750942"></line><line stroke-width="1.5" marker-end="url(#arrow)" x1="-102.80240528440649" y1="199.7373005408982" x2="-129.3188764038606" y2="180.88133933404055"></line><line stroke-width="1.5" marker-end="url(#arrow)" x1="172.55606064634486" y1="-153.1922454005202" x2="195.00601238914714" y2="-132.04727833462704"></line><line stroke-width="1.5" marker-end="url(#arrow)" x1="261.1369763061477" y1="30.992336390660583" x2="225.83991900784125" y2="36.23713636313711"></line><line stroke-width="1.5" marker-end="url(#arrow)" x1="-24.54024660074985" y1="-16.69663213818401" x2="7.624636619331828" y2="-40.16946975122767"></line><line stroke-width="1.5" marker-end="url(#arrow)" x1="-132.38571902078928" y1="76.54113285900348" x2="-142.59555238849734" y2="47.543032774973746"></line><line stroke-width="1.5" marker-end="url(#arrow)" x1="257.48568618304165" y1="124.56999907001827" x2="228.8922939310875" y2="137.24522821932405"></line><line stroke-width="1.5" marker-end="url(#arrow)" x1="-88.61926497311795" y1="-170.06381623280174" x2="-55.256223501637315" y2="-179.36150447386078"></line><line stroke-width="1.5" marker-end="url(#arrow)" x1="8.215745098632555" y1="-6.99373410124811" x2="7.624636619331828" y2="-40.16946975122767"></line><line stroke-width="1.5" marker-end="url(#arrow)" x1="-157.81996124312468" y1="195.4171340032693" x2="-129.3188764038606" y2="180.88133933404055"></line><line stroke-width="1.5" marker-end="url(#arrow)" x1="159.04380136104737" y1="196.6529656683259" x2="186.92438035045" y2="186.1738448750942"></line><line stroke-width="1.5" marker-end="url(#arrow)" x1="96.17972228056738" y1="-203.4093740715202" x2="73.2086447193464" y2="-178.4297308404835"></line><line stroke-width="1.5" marker-end="url(#arrow)" x1="46.5145715033793" y1="-199.0667165966418" x2="73.2086447193464" y2="-178.4297308404835"></line><line stroke-width="1.5" marker-end="url(#arrow)" x1="-203.4808217247876" y1="-92.71270821626503" x2="-220.32715923542992" y2="-67.31580816798963"></line><line stroke-width="1.5" marker-end="url(#arrow)" x1="60.50253829823786" y1="-95.80249486416342" x2="31.08048589611188" y2="-111.54855416498549"></line><line stroke-width="1.5" marker-end="url(#arrow)" x1="50.74826818277776" y1="-84.5696455082549" x2="31.08048589611188" y2="-111.54855416498549"></line><line stroke-width="1.5" marker-end="url(#arrow)" x1="-235.2010965071958" y1="-41.486395782714446" x2="-200.68814780875007" y2="-38.93086596399016"></line><line stroke-width="1.5" marker-end="url(#arrow)" x1="-243.58542648710556" y1="173.92156440625334" x2="-212.86093848152797" y2="176.52876066552355"></line><line stroke-width="1.5" marker-end="url(#arrow)" x1="30.547087952926375" y1="202.9230489260018" x2="37.145687840981054" y2="168.84679768278744"></line><line stroke-width="1.5" marker-end="url(#arrow)" x1="93.98280951178572" y1="-149.38195619772017" x2="73.2086447193464" y2="-178.4297308404835"></line><line stroke-width="1.5" marker-end="url(#arrow)" x1="82.28635152692088" y1="-145.4785981870175" x2="73.2086447193464" y2="-178.4297308404835"></line><line stroke-width="1.5" marker-end="url(#arrow)" x1="-185.60254475027503" y1="25.916514664949773" x2="-202.93198274474508" y2="-1.773844869243576"></line><line stroke-width="1.5" marker-end="url(#arrow)" x1="66.64698391107432" y1="182.36946405715574" x2="37.145687840981054" y2="168.84679768278744"></line><line stroke-width="1.5" marker-end="url(#arrow)" x1="252.52994107813265" y1="1.1527389872312834" x2="225.83991900784125" y2="36.23713636313711"></line><line stroke-width="1.5" marker-end="url(#arrow)" x1="214.52704899509902" y1="99.43754419697643" x2="218.0613237860204" y2="68.36163855318559"></line><line stroke-width="1.5" marker-end="url(#arrow)" x1="97.87894223848092" y1="-217.66269627023846" x2="73.2086447193464" y2="-178.4297308404835"></line><line stroke-width="1.5" marker-end="url(#arrow)" x1="-0.6184454654215726" y1="-276.428217749578" x2="8.225177663065622" y2="-246.56641275867835"></line><line stroke-width="1.5" marker-end="url(#arrow)" x1="236.75180750743925" y1="93.03974987994206" x2="218.0613237860204" y2="68.36163855318559"></line><line stroke-width="1.5" marker-end="url(#arrow)" x1="-88.22082184056308" y1="-159.7102398413889" x2="-55.256223501637315" y2="-179.36150447386078"></line><line stroke-width="1.5" marker-end="url(#arrow)" x1="-88.40587263842887" y1="-188.08669652013634" x2="-55.256223501637315" y2="-179.36150447386078"></line><line stroke-width="1.5" marker-end="url(#arrow)" x1="-142.59555238849734" y1="47.543032774973746" x2="-121.13246654054561" y2="20.77567400759643"></line><line stroke-width="1.5" marker-end="url(#arrow)" x1="-171.70117650789965" y1="-185.82482160335965" x2="-147.62179096438638" y2="-153.3850944953022"></line><line stroke-width="1.5" marker-end="url(#arrow)" x1="-224.30432156337812" y1="91.3470967834355" x2="-255.18318884468775" y2="93.40558440334638"></line><line stroke-width="1.5" marker-end="url(#arrow)" x1="-183.66920908329965" y1="209.74186482551124" x2="-157.81996124312468" y2="195.4171340032693"></line><line stroke-width="1.5" marker-end="url(#arrow)" x1="240.61147863720728" y1="190.46726013387647" x2="211.25933943175485" y2="195.40464926570775"></line><line stroke-width="1.5" marker-end="url(#arrow)" x1="211.25933943175485" y1="195.40464926570775" x2="206.48329039326077" y2="160.6419354728495"></line><line stroke-width="1.5" marker-end="url(#arrow)" x1="-72.45646572089204" y1="201.72518898823282" x2="-102.80240528440649" y2="199.7373005408982"></line><line stroke-width="1.5" marker-end="url(#arrow)" x1="40.409058220000354" y1="-182.4158540231495" x2="73.2086447193464" y2="-178.4297308404835"></line><line stroke-width="1.5" marker-end="url(#arrow)" x1="199.56257841626325" y1="-11.192070962460866" x2="224.16116319834006" y2="4.693792207118625"></line><line stroke-width="1.5" marker-end="url(#arrow)" x1="75.82534528223482" y1="243.97539785422313" x2="59.46868536675459" y2="212.489338495171"></line><line stroke-width="1.5" marker-end="url(#arrow)" x1="66.75493195486598" y1="102.72332510003285" x2="48.046765929736594" y2="128.52338660761387"></line><line stroke-width="1.5" marker-end="url(#arrow)" x1="71.20809654449916" y1="-283.2630872044477" x2="41.71608068014581" y2="-268.2839300585146"></line><line stroke-width="1.5" marker-end="url(#arrow)" x1="149.1618708539844" y1="-192.75655577294776" x2="97.87894223848092" y2="-217.66269627023846"></line><line stroke-width="1.5" marker-end="url(#arrow)" x1="195.00601238914714" y1="-132.04727833462704" x2="193.02728880777588" y2="-165.77542108362817"></line><line stroke-width="1.5" marker-end="url(#arrow)" x1="-65.59295096818556" y1="-212.58010132158682" x2="-55.256223501637315" y2="-179.36150447386078"></line><line stroke-width="1.5" marker-end="url(#arrow)" x1="43.237559719877346" y1="-23.088555348386826" x2="7.624636619331828" y2="-40.16946975122767"></line><line stroke-width="1.5" marker-end="url(#arrow)" x1="-4.02147658469069" y1="-306.6358780394735" x2="-0.6184454654215726" y2="-276.428217749578"></line><line stroke-width="1.5" marker-end="url(#arrow)" x1="-156.67955608113513" y1="2.2534040241129394" x2="-170.45339698543813" y2="-27.00935550999728"></line><line stroke-width="1.5" marker-end="url(#arrow)" x1="-205.4230364648819" y1="223.04358183275684" x2="-228.72008902511902" y2="201.4248621124652"></line><line stroke-width="1.5" marker-end="url(#arrow)" x1="-77.4792984004361" y1="279.524742229591" x2="-50.25542491770988" y2="294.98194780291317"></line><line stroke-width="1.5" marker-end="url(#arrow)" x1="-21.967596093927558" y1="-186.20075869852366" x2="-55.256223501637315" y2="-179.36150447386078"></line><line stroke-width="1.5" marker-end="url(#arrow)" x1="-228.72008902511902" y1="201.4248621124652" x2="-243.58542648710556" y2="173.92156440625334"></line><line stroke-width="1.5" marker-end="url(#arrow)" x1="-146.59479493839532" y1="-80.28802955243228" x2="-162.41832205661868" y2="-53.95905812674177"></line><line stroke-width="1.5" marker-end="url(#arrow)" x1="264.44883440339504" y1="-137.49159812770637" x2="232.96395416186897" y2="-130.54347374945672"></line><line stroke-width="1.5" marker-end="url(#arrow)" x1="-131.63330286356452" y1="144.19567094760797" x2="-105.49425423773833" y2="159.02177147353686"></line><line stroke-width="1.5" marker-end="url(#arrow)" x1="-79.61732420864524" y1="-153.1303119518066" x2="-55.256223501637315" y2="-179.36150447386078"></line><line stroke-width="1.5" marker-end="url(#arrow)" x1="-123.48071184672409" y1="265.8132628967467" x2="-152.4360884879809" y2="257.2628697180549"></line><line stroke-width="1.5" marker-end="url(#arrow)" x1="-196.7382737270403" y1="-207.87891125098372" x2="-171.70117650789965" y2="-185.82482160335965"></line><line stroke-width="1.5" marker-end="url(#arrow)" x1="67.92342480660358" y1="-145.56956238942652" x2="73.2086447193464" y2="-178.4297308404835"></line><line stroke-width="1.5" marker-end="url(#arrow)" x1="37.145687840981054" y1="168.84679768278744" x2="24.788879555789684" y2="133.43824039748654"></line><line stroke-width="1.5" marker-end="url(#arrow)" x1="-241.61724644049286" y1="66.6873594250203" x2="-224.30432156337812" y2="91.3470967834355"></line><line stroke-width="1.5" marker-end="url(#arrow)" x1="-11.148678258716963" y1="-4.762005170076185" x2="7.624636619331828" y2="-40.16946975122767"></line><line stroke-width="1.5" marker-end="url(#arrow)" x1="188.9060142905352" y1="56.67347387037909" x2="146.3502449311415" y2="69.35321012212951"></line><line stroke-width="1.5" marker-end="url(#arrow)" x1="86.86692769496473" y1="233.4504944952599" x2="59.46868536675459" y2="212.489338495171"></line><line stroke-width="1.5" marker-end="url(#arrow)" x1="264.92650667507985" y1="-119.993440582451" x2="232.96395416186897" y2="-130.54347374945672"></line><line stroke-width="1.5" marker-end="url(#arrow)" x1="40.99779312071847" y1="292.89630795290367" x2="9.215517527717743" y2="285.0347221159679"></line><line stroke-width="1.5" marker-end="url(#arrow)" x1="-6.236164524856136" y1="205.2083471707547" x2="4.806343139419879" y2="176.48184160777126"></line><line stroke-width="1.5" marker-end="url(#arrow)" x1="24.788879555789684" y1="133.43824039748654" x2="11.017058291588969" y2="95.61479615906002"></line><line stroke-width="1.5" marker-end="url(#arrow)" x1="114.60614197202061" y1="48.75221251416218" x2="146.3502449311415" y2="69.35321012212951"></line><line stroke-width="1.5" marker-end="url(#arrow)" x1="-148.9973244113582" y1="-232.97707607397442" x2="-148.01805822564853" y2="-199.18873189324896"></line><line stroke-width="1.5" marker-end="url(#arrow)" x1="-252.099029472758" y1="12.170410088581091" x2="-228.57027893474748" y2="-11.487520898656477"></line><line stroke-width="1.5" marker-end="url(#arrow)" x1="291.23333388445354" y1="40.80135195479573" x2="261.1369763061477" y2="30.992336390660583"></line><line stroke-width="1.5" marker-end="url(#arrow)" x1="146.3502449311415" y1="69.35321012212951" x2="109.11955617593178" y2="65.72955285976833"></line><line stroke-width="1.5" marker-end="url(#arrow)" x1="154.07353268737242" y1="-44.40857475535091" x2="185.27334102964804" y2="-44.803677015744505"></line><line stroke-width="1.5" marker-end="url(#arrow)" x1="194.30325877033604" y1="130.80998464730945" x2="177.88845014805906" y2="156.16743633442115"></line><line stroke-width="1.5" marker-end="url(#arrow)" x1="-107.43786631745488" y1="229.76805884050168" x2="-102.80240528440649" y2="199.7373005408982"></line><line stroke-width="1.5" marker-end="url(#arrow)" x1="9.59940318971666" y1="-71.46864195303941" x2="7.624636619331828" y2="-40.16946975122767"></line><line stroke-width="1.5" marker-end="url(#arrow)" x1="210.2466412506405" y1="-187.00400403428418" x2="182.59406260060712" y2="-201.61265981630075"></line><line stroke-width="1.5" marker-end="url(#arrow)" x1="-203.29031169432972" y1="-140.39158024635202" x2="-177.01383590221806" y2="-155.13659014712132"></line><line stroke-width="1.5" marker-end="url(#arrow)" x1="-228.57027893474748" y1="-11.487520898656477" x2="-200.68814780875007" y2="-38.93086596399016"></line><line stroke-width="1.5" marker-end="url(#arrow)" x1="164.73684086659705" y1="15.972900053705295" x2="192.24680407921468" y2="31.215001875828754"></line><line stroke-width="1.5" marker-end="url(#arrow)" x1="245.5582175765632" y1="-99.14757340766234" x2="232.96395416186897" y2="-130.54347374945672"></line><line stroke-width="1.5" marker-end="url(#arrow)" x1="-164.26722131414434" y1="-228.45884412840084" x2="-148.01805822564853" y2="-199.18873189324896"></line><line stroke-width="1.5" marker-end="url(#arrow)" x1="-53.01097153173592" y1="-291.4187253837845" x2="-34.17751272678653" y2="-264.9759498267433"></line><line stroke-width="1.5" marker-end="url(#arrow)" x1="-27.992266086443845" y1="-122.23215934866313" x2="10.320741634201752" y2="-134.63716286118515"></line><line stroke-width="1.5" marker-end="url(#arrow)" x1="220.9761430588338" y1="-27.16085508041117" x2="224.16116319834006" y2="4.693792207118625"></line><line stroke-width="1.5" marker-end="url(#arrow)" x1="54.794188191137124" y1="-296.60532118838483" x2="41.71608068014581" y2="-268.2839300585146"></line><line stroke-width="1.5" marker-end="url(#arrow)" x1="151.26398023595738" y1="228.1510564650409" x2="138.14754177980186" y2="197.60910929570085"></line><line stroke-width="1.5" marker-end="url(#arrow)" x1="-45.79423721613354" y1="-68.83766916143713" x2="-27.907269153139428" y2="-98.0265681951971"></line><line stroke-width="1.5" marker-end="url(#arrow)" x1="232.96395416186897" y1="-130.54347374945672" x2="193.02728880777588" y2="-165.77542108362817"></line><line stroke-width="1.5" marker-end="url(#arrow)" x1="-27.40724292751757" y1="144.40725480526842" x2="4.84728784982529" y2="147.07611751401365"></line><line stroke-width="1.5" marker-end="url(#arrow)" x1="174.76010258631766" y1="215.75832122159105" x2="186.92438035045" y2="186.1738448750942"></line><line stroke-width="1.5" marker-end="url(#arrow)" x1="276.7443353337005" y1="81.12627343823851" x2="251.77183844024432" y2="60.30695940024671"></line><line stroke-width="1.5" marker-end="url(#arrow)" x1="-161.44133119816937" y1="106.56992102897819" x2="-191.03474438289496" y2="94.21089326186605"></line><line stroke-width="1.5" marker-end="url(#arrow)" x1="50.66439405368955" y1="94.90253112411577" x2="48.046765929736594" y2="128.52338660761387"></line><line stroke-width="1.5" marker-end="url(#arrow)" x1="-118.1224734532711" y1="-21.87865764409904" x2="-127.28744919200795" y2="-66.19136389297111"></line><line stroke-width="1.5" marker-end="url(#arrow)" x1="201.5480901199026" y1="-226.54937272495138" x2="182.59406260060712" y2="-201.61265981630075"></line><line stroke-width="1.5" marker-end="url(#arrow)" x1="150.8399123379381" y1="149.36780931903672" x2="155.4537196703202" y2="108.79985140578377"></line><line stroke-width="1.5" marker-end="url(#arrow)" x1="-31.985698470702275" y1="80.6968969957481" x2="-58.60638987836151" y2="101.61620938959827"></line><line stroke-width="1.5" marker-end="url(#arrow)" x1="213.8111738348896" y1="-206.93528096316632" x2="182.59406260060712" y2="-201.61265981630075"></line><line stroke-width="1.5" marker-end="url(#arrow)" x1="182.59406260060712" y1="-201.61265981630075" x2="193.02728880777588" y2="-165.77542108362817"></line><line stroke-width="1.5" marker-end="url(#arrow)" x1="-261.26953297413985" y1="-158.12859957692416" x2="-273.0906243753947" y2="-125.45896302594224"></line><line stroke-width="1.5" marker-end="url(#arrow)" x1="-34.48201588693425" y1="-207.91795653086083" x2="-55.256223501637315" y2="-179.36150447386078"></line><line stroke-width="1.5" marker-end="url(#arrow)" x1="240.72881731845806" y1="164.84834299810228" x2="228.8922939310875" y2="137.24522821932405"></line><line stroke-width="1.5" marker-end="url(#arrow)" x1="108.0986077882651" y1="-186.9633552993062" x2="73.2086447193464" y2="-178.4297308404835"></line><line stroke-width="1.5" marker-end="url(#arrow)" x1="-79.99923818655466" y1="179.47170078922744" x2="-102.80240528440649" y2="199.7373005408982"></line><line stroke-width="1.5" marker-end="url(#arrow)" x1="-168.29915482564175" y1="-96.98747592988364" x2="-181.62707846008428" y2="-123.30905218756273"></line><line stroke-width="1.5" marker-end="url(#arrow)" x1="60.49031766846774" y1="246.8407568227165" x2="59.46868536675459" y2="212.489338495171"></line><line stroke-width="1.5" marker-end="url(#arrow)" x1="-104.20179283650697" y1="54.529607896286706" x2="-121.13246654054561" y2="20.77567400759643"></line><line stroke-width="1.5" marker-end="url(#arrow)" x1="-33.63310647600942" y1="241.86280703571617" x2="-25.99111575426197" y2="274.1343192116899"></line><line stroke-width="1.5" marker-end="url(#arrow)" x1="-137.3148372567493" y1="-110.8871398011344" x2="-127.28744919200795" y2="-66.19136389297111"></line><line stroke-width="1.5" marker-end="url(#arrow)" x1="155.4537196703202" y1="108.79985140578377" x2="146.3502449311415" y2="69.35321012212951"></line><line stroke-width="1.5" marker-end="url(#arrow)" x1="-0.2780459958512068" y1="-0.9462893132953837" x2="7.624636619331828" y2="-40.16946975122767"></line><line stroke-width="1.5" marker-end="url(#arrow)" x1="59.46868536675459" y1="212.489338495171" x2="37.145687840981054" y2="168.84679768278744"></line><line stroke-width="1.5" marker-end="url(#arrow)" x1="95.5859732372015" y1="193.80397108539634" x2="66.64698391107432" y2="182.36946405715574"></line><line stroke-width="1.5" marker-end="url(#arrow)" x1="102.72284326325062" y1="-156.56563670378767" x2="73.2086447193464" y2="-178.4297308404835"></line><line stroke-width="1.5" marker-end="url(#arrow)" x1="193.16528274614768" y1="222.1820334143193" x2="211.25933943175485" y2="195.40464926570775"></line><line stroke-width="1.5" marker-end="url(#arrow)" x1="9.215517527717743" y1="285.0347221159679" x2="-25.99111575426197" y2="274.1343192116899"></line><line stroke-width="1.5" marker-end="url(#arrow)" x1="-121.13246654054561" y1="20.77567400759643" x2="-118.1224734532711" y2="-21.87865764409904"></line><line stroke-width="1.5" marker-end="url(#arrow)" x1="167.14727981524797" y1="-231.57699366936856" x2="182.59406260060712" y2="-201.61265981630075"></line><line stroke-width="1.5" marker-end="url(#arrow)" x1="64.83541544580486" y1="-213.46996660578026" x2="73.2086447193464" y2="-178.4297308404835"></line><line stroke-width="1.5" marker-end="url(#arrow)" x1="-58.908102534140255" y1="38.47737257235891" x2="-89.83994572260367" y2="30.83445351306826"></line><line stroke-width="1.5" marker-end="url(#arrow)" x1="-101.16258333723584" y1="2.09219662981748" x2="-89.83994572260367" y2="30.83445351306826"></line><line stroke-width="1.5" marker-end="url(#arrow)" x1="-25.823615198698548" y1="-294.46930445349346" x2="-0.6184454654215726" y2="-276.428217749578"></line><line stroke-width="1.5" marker-end="url(#arrow)" x1="272.331803036668" y1="-26.740280322557066" x2="252.52994107813265" y2="1.1527389872312834"></line><line stroke-width="1.5" marker-end="url(#arrow)" x1="-89.90209602715566" y1="-199.2114558970202" x2="-55.256223501637315" y2="-179.36150447386078"></line><line stroke-width="1.5" marker-end="url(#arrow)" x1="-171.79205615396828" y1="59.258227801709616" x2="-142.59555238849734" y2="47.543032774973746"></line><line stroke-width="1.5" marker-end="url(#arrow)" x1="83.53524673407848" y1="209.43447355516668" x2="66.64698391107432" y2="182.36946405715574"></line><line stroke-width="1.5" marker-end="url(#arrow)" x1="-260.08649473813574" y1="-2.9349556308060136" x2="-228.57027893474748" y2="-11.487520898656477"></line><line stroke-width="1.5" marker-end="url(#arrow)" x1="-237.56080179276802" y1="19.92209438197102" x2="-228.57027893474748" y2="-11.487520898656477"></line><line stroke-width="1.5" marker-end="url(#arrow)" x1="16.40198575483304" y1="0.4274152753419344" x2="7.624636619331828" y2="-40.16946975122767"></line><line stroke-width="1.5" marker-end="url(#arrow)" x1="42.6580156806135" y1="232.60808305695767" x2="30.547087952926375" y2="202.9230489260018"></line><line stroke-width="1.5" marker-end="url(#arrow)" x1="159.8265869535342" y1="34.96925756891097" x2="192.24680407921468" y2="31.215001875828754"></line><line stroke-width="1.5" marker-end="url(#arrow)" x1="-128.6782797113273" y1="113.09780120810667" x2="-161.44133119816937" y2="106.56992102897819"></line><line stroke-width="1.5" marker-end="url(#arrow)" x1="210.51383350927227" y1="226.51402217117848" x2="211.25933943175485" y2="195.40464926570775"></line><line stroke-width="1.5" marker-end="url(#arrow)" x1="7.624636619331828" y1="-40.16946975122767" x2="10.320741634201752" y2="-134.63716286118515"></line><line stroke-width="1.5" marker-end="url(#arrow)" x1="-203.00942744164658" y1="31.46563615534918" x2="-202.93198274474508" y2="-1.773844869243576"></line><line stroke-width="1.5" marker-end="url(#arrow)" x1="107.24102429638529" y1="-166.0692623308504" x2="73.2086447193464" y2="-178.4297308404835"></line><line stroke-width="1.5" marker-end="url(#arrow)" x1="182.81668289088216" y1="-234.25075463919765" x2="182.59406260060712" y2="-201.61265981630075"></line><line stroke-width="1.5" marker-end="url(#arrow)" x1="131.32933294518477" y1="-3.3971925801426544" x2="128.1840803268434" y2="-35.475524962138806"></line><line stroke-width="1.5" marker-end="url(#arrow)" x1="-245.3469847008483" y1="-134.61557684948616" x2="-261.26953297413985" y2="-158.12859957692416"></line><line stroke-width="1.5" marker-end="url(#arrow)" x1="161.87623637816682" y1="-23.40777172766683" x2="185.27334102964804" y2="-44.803677015744505"></line><line stroke-width="1.5" marker-end="url(#arrow)" x1="218.99577389881614" y1="-112.919111257374" x2="195.00601238914714" y2="-132.04727833462704"></line><line stroke-width="1.5" marker-end="url(#arrow)" x1="-50.25542491770988" y1="294.98194780291317" x2="-25.99111575426197" y2="274.1343192116899"></line><line stroke-width="1.5" marker-end="url(#arrow)" x1="66.28787697538641" y1="151.81990947616384" x2="66.64698391107432" y2="182.36946405715574"></line><line stroke-width="1.5" marker-end="url(#arrow)" x1="-186.07013027284805" y1="-68.67864859684973" x2="-168.29915482564175" y2="-96.98747592988364"></line><line stroke-width="1.5" marker-end="url(#arrow)" x1="136.71808921549146" y1="232.1931162120208" x2="138.14754177980186" y2="197.60910929570085"></line><line stroke-width="1.5" marker-end="url(#arrow)" x1="-94.60020502354797" y1="-179.22510417329855" x2="-55.256223501637315" y2="-179.36150447386078"></line><line stroke-width="1.5" marker-end="url(#arrow)" x1="34.25821184964103" y1="-58.22439032685426" x2="7.624636619331828" y2="-40.16946975122767"></line><line stroke-width="1.5" marker-end="url(#arrow)" x1="-242.3737667829148" y1="117.04808484679451" x2="-224.30432156337812" y2="91.3470967834355"></line><line stroke-width="1.5" marker-end="url(#arrow)" x1="238.83410193120662" y1="-23.56219620057227" x2="224.16116319834006" y2="4.693792207118625"></line><line stroke-width="1.5" marker-end="url(#arrow)" x1="-25.787691271843784" y1="168.38659142636635" x2="4.806343139419879" y2="176.48184160777126"></line><line stroke-width="1.5" marker-end="url(#arrow)" x1="-203.86136767662532" y1="-193.1608970012146" x2="-171.70117650789965" y2="-185.82482160335965"></line><line stroke-width="1.5" marker-end="url(#arrow)" x1="-205.31830728322316" y1="119.88476372359494" x2="-201.64622393480903" y2="149.08676730548515"></line><line stroke-width="1.5" marker-end="url(#arrow)" x1="-294.97773459691194" y1="39.17705015681408" x2="-271.4163599122541" y2="58.48794734318024"></line><line stroke-width="1.5" marker-end="url(#arrow)" x1="-68.16064220570689" y1="-148.43890773242904" x2="-55.256223501637315" y2="-179.36150447386078"></line><line stroke-width="1.5" marker-end="url(#arrow)" x1="-201.64622393480903" y1="149.08676730548515" x2="-231.37462053112588" y2="143.75230807583006"></line><line stroke-width="1.5" marker-end="url(#arrow)" x1="231.16428400840368" y1="-161.46645808936248" x2="232.96395416186897" y2="-130.54347374945672"></line><line stroke-width="1.5" marker-end="url(#arrow)" x1="-284.7904641430007" y1="-93.67315974893458" x2="-296.3920980311262" y2="-60.65954871539231"></line><line stroke-width="1.5" marker-end="url(#arrow)" x1="-271.4163599122541" y1="58.48794734318024" x2="-241.61724644049286" y2="66.6873594250203"></line><line stroke-width="1.5" marker-end="url(#arrow)" x1="98.62821792991653" y1="-106.80284704174301" x2="63.64451570804444" y2="-111.42353505247793"></line><line stroke-width="1.5" marker-end="url(#arrow)" x1="218.0613237860204" y1="68.36163855318559" x2="225.83991900784125" y2="36.23713636313711"></line><line stroke-width="1.5" marker-end="url(#arrow)" x1="-296.3920980311262" y1="-60.65954871539231" x2="-302.05208256287" y2="-25.456350134649497"></line><line stroke-width="1.5" marker-end="url(#arrow)" x1="10.320741634201752" y1="-134.63716286118515" x2="25.774703377274296" y2="-199.16300822588485"></line><line stroke-width="1.5" marker-end="url(#arrow)" x1="101.47797214945132" y1="-18.313720167048157" x2="128.1840803268434" y2="-35.475524962138806"></line><line stroke-width="1.5" marker-end="url(#arrow)" x1="22.52138754292902" y1="-296.41563870874467" x2="-0.6184454654215726" y2="-276.428217749578"></line><line stroke-width="1.5" marker-end="url(#arrow)" x1="52.39214717447765" y1="-153.11039841947144" x2="73.2086447193464" y2="-178.4297308404835"></line><line stroke-width="1.5" marker-end="url(#arrow)" x1="-72.22503599025237" y1="58.127208252194755" x2="-104.20179283650697" y2="54.529607896286706"></line><line stroke-width="1.5" marker-end="url(#arrow)" x1="-281.1195768742947" y1="110.01904285069062" x2="-289.9560592537878" y2="81.03417721149432"></line><line stroke-width="1.5" marker-end="url(#arrow)" x1="-93.13415361858766" y1="257.82600823877067" x2="-123.48071184672409" y2="265.8132628967467"></line><line stroke-width="1.5" marker-end="url(#arrow)" x1="25.774703377274296" y1="-199.16300822588485" x2="97.87894223848092" y2="-217.66269627023846"></line><line stroke-width="1.5" marker-end="url(#arrow)" x1="128.1840803268434" y1="-35.475524962138806" x2="158.08974896705027" y2="-62.90786169925581"></line><line stroke-width="1.5" marker-end="url(#arrow)" x1="-129.3188764038606" y1="180.88133933404055" x2="-155.19088261910238" y2="162.82856544614327"></line><line stroke-width="1.5" marker-end="url(#arrow)" x1="-170.45339698543813" y1="-27.00935550999728" x2="-200.68814780875007" y2="-38.93086596399016"></line><line stroke-width="1.5" marker-end="url(#arrow)" x1="48.046765929736594" y1="128.52338660761387" x2="37.145687840981054" y2="168.84679768278744"></line><line stroke-width="1.5" marker-end="url(#arrow)" x1="252.59173009752897" y1="-155.45117007357507" x2="232.96395416186897" y2="-130.54347374945672"></line><line stroke-width="1.5" marker-end="url(#arrow)" x1="251.77183844024432" y1="60.30695940024671" x2="225.83991900784125" y2="36.23713636313711"></line><line stroke-width="1.5" marker-end="url(#arrow)" x1="-63.46332574984925" y1="233.3635057291097" x2="-33.63310647600942" y2="241.86280703571617"></line><line stroke-width="1.5" marker-end="url(#arrow)" x1="193.29415112729222" y1="87.53665154765532" x2="218.0613237860204" y2="68.36163855318559"></line><line stroke-width="1.5" marker-end="url(#arrow)" x1="-105.49425423773833" y1="159.02177147353686" x2="-129.3188764038606" y2="180.88133933404055"></line><line stroke-width="1.5" marker-end="url(#arrow)" x1="94.66608818842256" y1="-91.93143400918504" x2="63.64451570804444" y2="-111.42353505247793"></line><line stroke-width="1.5" marker-end="url(#arrow)" x1="-132.54658517944625" y1="-44.575830856022336" x2="-162.41832205661868" y2="-53.95905812674177"></line><line stroke-width="1.5" marker-end="url(#arrow)" x1="-155.19088261910238" y1="162.82856544614327" x2="-156.5052553858439" y2="131.0752693066844"></line><line stroke-width="1.5" marker-end="url(#arrow)" x1="186.92438035045" y1="186.1738448750942" x2="206.48329039326077" y2="160.6419354728495"></line><line stroke-width="1.5" marker-end="url(#arrow)" x1="-50.22951649960473" y1="-147.9580413095982" x2="-55.256223501637315" y2="-179.36150447386078"></line><line stroke-width="1.5" marker-end="url(#arrow)" x1="206.48329039326077" y1="160.6419354728495" x2="194.30325877033604" y2="130.80998464730945"></line><line stroke-width="1.5" marker-end="url(#arrow)" x1="227.34526711705976" y1="-90.21708460794828" x2="232.96395416186897" y2="-130.54347374945672"></line><line stroke-width="1.5" marker-end="url(#arrow)" x1="-3.786259181177842" y1="116.15283772138646" x2="4.84728784982529" y2="147.07611751401365"></line><line stroke-width="1.5" marker-end="url(#arrow)" x1="-133.6134359009352" y1="-228.6223770938604" x2="-148.01805822564853" y2="-199.18873189324896"></line><line stroke-width="1.5" marker-end="url(#arrow)" x1="-176.3683369411069" y1="3.1724491868492986" x2="-170.45339698543813" y2="-27.00935550999728"></line><line stroke-width="1.5" marker-end="url(#arrow)" x1="-26.569277104489714" y1="-198.59570820701305" x2="-55.256223501637315" y2="-179.36150447386078"></line><line stroke-width="1.5" marker-end="url(#arrow)" x1="-212.86093848152797" y1="176.52876066552355" x2="-182.85132970928876" y2="171.3400643932409"></line><line stroke-width="1.5" marker-end="url(#arrow)" x1="-232.47087648986036" y1="-96.49593767589865" x2="-220.32715923542992" y2="-67.31580816798963"></line><line stroke-width="1.5" marker-end="url(#arrow)" x1="85.1273423564793" y1="-210.45447940530198" x2="73.2086447193464" y2="-178.4297308404835"></line><line stroke-width="1.5" marker-end="url(#arrow)" x1="-179.89296515332222" y1="242.54568405865732" x2="-205.4230364648819" y2="223.04358183275684"></line><line stroke-width="1.5" marker-end="url(#arrow)" x1="-162.41832205661868" y1="-53.95905812674177" x2="-200.68814780875007" y2="-38.93086596399016"></line><line stroke-width="1.5" marker-end="url(#arrow)" x1="182.15931465713427" y1="-102.24554676988879" x2="195.00601238914714" y2="-132.04727833462704"></line><line stroke-width="1.5" marker-end="url(#arrow)" x1="-13.71668277808078" y1="-14.61492726743718" x2="7.624636619331828" y2="-40.16946975122767"></line><line stroke-width="1.5" marker-end="url(#arrow)" x1="163.37405732888183" y1="-130.40921609109347" x2="195.00601238914714" y2="-132.04727833462704"></line><line stroke-width="1.5" marker-end="url(#arrow)" x1="111.30231234903707" y1="96.47812349998136" x2="134.72761188669716" y2="118.88512763227567"></line><line stroke-width="1.5" marker-end="url(#arrow)" x1="-103.80039793096252" y1="85.76977293050673" x2="-104.20179283650697" y2="54.529607896286706"></line><line stroke-width="1.5" marker-end="url(#arrow)" x1="-257.8813170315192" y1="-63.139727309680175" x2="-235.2010965071958" y2="-41.486395782714446"></line><line stroke-width="1.5" marker-end="url(#arrow)" x1="-58.35060001528987" y1="262.10232916949974" x2="-93.13415361858766" y2="257.82600823877067"></line><line stroke-width="1.5" marker-end="url(#arrow)" x1="-182.85132970928876" y1="171.3400643932409" x2="-201.64622393480903" y2="149.08676730548515"></line><line stroke-width="1.5" marker-end="url(#arrow)" x1="121.59366163714675" y1="147.16281946980163" x2="150.8399123379381" y2="149.36780931903672"></line><line stroke-width="1.5" marker-end="url(#arrow)" x1="-2.4529495024621375" y1="67.0089897871196" x2="-31.985698470702275" y2="80.6968969957481"></line><line stroke-width="1.5" marker-end="url(#arrow)" x1="-156.5052553858439" y1="131.0752693066844" x2="-128.6782797113273" y2="113.09780120810667"></line><line stroke-width="1.5" marker-end="url(#arrow)" x1="-55.77974070121307" y1="-216.33539621345668" x2="-55.256223501637315" y2="-179.36150447386078"></line><line stroke-width="1.5" marker-end="url(#arrow)" x1="-79.74760257676746" y1="-202.72512933755252" x2="-55.256223501637315" y2="-179.36150447386078"></line><line stroke-width="1.5" marker-end="url(#arrow)" x1="201.3858885729912" y1="-100.67073109831415" x2="195.00601238914714" y2="-132.04727833462704"></line><line stroke-width="1.5" marker-end="url(#arrow)" x1="80.21257397025644" y1="50.668699506794916" x2="114.60614197202061" y2="48.75221251416218"></line><line stroke-width="1.5" marker-end="url(#arrow)" x1="4.806343139419879" y1="176.48184160777126" x2="37.145687840981054" y2="168.84679768278744"></line><line stroke-width="1.5" marker-end="url(#arrow)" x1="-62.97547360630147" y1="-122.3676052392206" x2="-27.992266086443845" y2="-122.23215934866313"></line><line stroke-width="1.5" marker-end="url(#arrow)" x1="225.83991900784125" y1="36.23713636313711" x2="188.9060142905352" y2="56.67347387037909"></line><line stroke-width="1.5" marker-end="url(#arrow)" x1="228.8922939310875" y1="137.24522821932405" x2="206.48329039326077" y2="160.6419354728495"></line><line stroke-width="1.5" marker-end="url(#arrow)" x1="169.20277870740537" y1="53.43996638952917" x2="192.24680407921468" y2="31.215001875828754"></line><line stroke-width="1.5" marker-end="url(#arrow)" x1="-34.17751272678653" y1="-264.9759498267433" x2="8.225177663065622" y2="-246.56641275867835"></line><line stroke-width="1.5" marker-end="url(#arrow)" x1="-201.75496439561857" y1="-174.34479647504116" x2="-177.01383590221806" y2="-155.13659014712132"></line><line stroke-width="1.5" marker-end="url(#arrow)" x1="25.393757297668202" y1="235.14188250234156" x2="30.547087952926375" y2="202.9230489260018"></line><line stroke-width="1.5" marker-end="url(#arrow)" x1="42.29381678520711" y1="-46.142594851734046" x2="7.624636619331828" y2="-40.16946975122767"></line><line stroke-width="1.5" marker-end="url(#arrow)" x1="34.10283215332127" y1="-8.894190283229854" x2="7.624636619331828" y2="-40.16946975122767"></line><line stroke-width="1.5" marker-end="url(#arrow)" x1="130.845040830246" y1="88.14742440096398" x2="134.72761188669716" y2="118.88512763227567"></line><line stroke-width="1.5" marker-end="url(#arrow)" x1="-29.075698846034605" y1="-37.71027223555987" x2="7.624636619331828" y2="-40.16946975122767"></line><line stroke-width="1.5" marker-end="url(#arrow)" x1="-142.7609620726085" y1="-12.743402085119108" x2="-170.45339698543813" y2="-27.00935550999728"></line><line stroke-width="1.5" marker-end="url(#arrow)" x1="122.80490003825844" y1="227.07759957158518" x2="138.14754177980186" y2="197.60910929570085"></line><line stroke-width="1.5" marker-end="url(#arrow)" x1="93.7845603712167" y1="133.18458080553177" x2="121.59366163714675" y2="147.16281946980163"></line><line stroke-width="1.5" marker-end="url(#arrow)" x1="-13.471495623705275" y1="-64.46184054799244" x2="7.624636619331828" y2="-40.16946975122767"></line><line stroke-width="1.5" marker-end="url(#arrow)" x1="-81.17278241132018" y1="299.06457913948174" x2="-50.25542491770988" y2="294.98194780291317"></line><line stroke-width="1.5" marker-end="url(#arrow)" x1="74.24722861606578" y1="-266.57794927503335" x2="41.71608068014581" y2="-268.2839300585146"></line><line stroke-width="1.5" marker-end="url(#arrow)" x1="-202.93198274474508" y1="-1.773844869243576" x2="-200.68814780875007" y2="-38.93086596399016"></line><line stroke-width="1.5" marker-end="url(#arrow)" x1="292.0383883233649" y1="20.88286384843688" x2="261.1369763061477" y2="30.992336390660583"></line><line stroke-width="1.5" marker-end="url(#arrow)" x1="283.17409626075727" y1="62.98193485185046" x2="251.77183844024432" y2="60.30695940024671"></line><line stroke-width="1.5" marker-end="url(#arrow)" x1="-51.34605111504265" y1="-99.86983275606919" x2="-27.992266086443845" y2="-122.23215934866313"></line><line stroke-width="1.5" marker-end="url(#arrow)" x1="113.50303059528436" y1="-5.440321570175309" x2="128.1840803268434" y2="-35.475524962138806"></line><line stroke-width="1.5" marker-end="url(#arrow)" x1="4.84728784982529" y1="147.07611751401365" x2="37.145687840981054" y2="168.84679768278744"></line><line stroke-width="1.5" marker-end="url(#arrow)" x1="282.3081393695375" y1="-14.86938687945344" x2="252.52994107813265" y2="1.1527389872312834"></line><line stroke-width="1.5" marker-end="url(#arrow)" x1="-67.77158805453412" y1="-263.73862524864916" x2="-34.17751272678653" y2="-264.9759498267433"></line><line stroke-width="1.5" marker-end="url(#arrow)" x1="54.6583821875239" y1="-208.7857379202888" x2="73.2086447193464" y2="-178.4297308404835"></line><line stroke-width="1.5" marker-end="url(#arrow)" x1="-27.907269153139428" y1="-98.0265681951971" x2="10.320741634201752" y2="-134.63716286118515"></line><line stroke-width="1.5" marker-end="url(#arrow)" x1="-24.428072861094257" y1="-49.73897165601486" x2="7.624636619331828" y2="-40.16946975122767"></line><line stroke-width="1.5" marker-end="url(#arrow)" x1="-20.91412325788683" y1="303.21097857139324" x2="-50.25542491770988" y2="294.98194780291317"></line><line stroke-width="1.5" marker-end="url(#arrow)" x1="258.0126193388364" y1="-106.76361594203466" x2="232.96395416186897" y2="-130.54347374945672"></line><line stroke-width="1.5" marker-end="url(#arrow)" x1="-62.60398778879892" y1="-109.92788737867478" x2="-27.992266086443845" y2="-122.23215934866313"></line><line stroke-width="1.5" marker-end="url(#arrow)" x1="281.55889776980325" y1="6.7080007586374775" x2="261.1369763061477" y2="30.992336390660583"></line><line stroke-width="1.5" marker-end="url(#arrow)" x1="-45.044768096471856" y1="-212.902664956257" x2="-55.256223501637315" y2="-179.36150447386078"></line><line stroke-width="1.5" marker-end="url(#arrow)" x1="-209.31290747597163" y1="-159.53729237502193" x2="-177.01383590221806" y2="-155.13659014712132"></line><line stroke-width="1.5" marker-end="url(#arrow)" x1="11.017058291588969" y1="95.61479615906002" x2="-2.4529495024621375" y2="67.0089897871196"></line><line stroke-width="1.5" marker-end="url(#arrow)" x1="8.054918550560275" y1="225.00440277196688" x2="30.547087952926375" y2="202.9230489260018"></line><line stroke-width="1.5" marker-end="url(#arrow)" x1="-262.5737426497451" y1="-25.318594022261475" x2="-235.2010965071958" y2="-41.486395782714446"></line><line stroke-width="1.5" marker-end="url(#arrow)" x1="8.225177663065622" y1="-246.56641275867835" x2="25.774703377274296" y2="-199.16300822588485"></line><line stroke-width="1.5" marker-end="url(#arrow)" x1="-23.676445086846577" y1="189.42117348246498" x2="4.806343139419879" y2="176.48184160777126"></line><line stroke-width="1.5" marker-end="url(#arrow)" x1="-200.68814780875007" y1="-38.93086596399016" x2="-186.07013027284805" y2="-68.67864859684973"></line><line stroke-width="1.5" marker-end="url(#arrow)" x1="192.24680407921468" y1="31.215001875828754" x2="225.83991900784125" y2="36.23713636313711"></line><line stroke-width="1.5" marker-end="url(#arrow)" x1="42.85895138165882" y1="-34.796803727289934" x2="7.624636619331828" y2="-40.16946975122767"></line><line stroke-width="1.5" marker-end="url(#arrow)" x1="41.71608068014581" y1="-268.2839300585146" x2="8.225177663065622" y2="-246.56641275867835"></line><line stroke-width="1.5" marker-end="url(#arrow)" x1="-23.069777607725413" y1="-171.27002332467995" x2="-55.256223501637315" y2="-179.36150447386078"></line><line stroke-width="1.5" marker-end="url(#arrow)" x1="193.02728880777588" y1="-165.77542108362817" x2="149.1618708539844" y2="-192.75655577294776"></line><line stroke-width="1.5" marker-end="url(#arrow)" x1="257.9301746000666" y1="-32.62335089531549" x2="252.52994107813265" y2="1.1527389872312834"></line><line stroke-width="1.5" marker-end="url(#arrow)" x1="-267.0658580591142" y1="-44.33709849351951" x2="-235.2010965071958" y2="-41.486395782714446"></line><line stroke-width="1.5" marker-end="url(#arrow)" x1="-147.62179096438638" y1="-153.3850944953022" x2="-137.3148372567493" y2="-110.8871398011344"></line><line stroke-width="1.5" marker-end="url(#arrow)" x1="42.22612066577178" y1="-166.41969042281346" x2="73.2086447193464" y2="-178.4297308404835"></line><line stroke-width="1.5" marker-end="url(#arrow)" x1="-191.03474438289496" y1="94.21089326186605" x2="-205.31830728322316" y2="119.88476372359494"></line><line stroke-width="1.5" marker-end="url(#arrow)" x1="138.14754177980186" y1="197.60910929570085" x2="150.8399123379381" y2="149.36780931903672"></line><line stroke-width="1.5" marker-end="url(#arrow)" x1="-76.33452643306092" y1="-213.0019344209811" x2="-55.256223501637315" y2="-179.36150447386078"></line><line stroke-width="1.5" marker-end="url(#arrow)" x1="-150.39983147033846" y1="225.36805137206414" x2="-157.81996124312468" y2="195.4171340032693"></line><line stroke-width="1.5" marker-end="url(#arrow)" x1="-64.10804230376877" y1="-86.22787349461177" x2="-27.907269153139428" y2="-98.0265681951971"></line><line stroke-width="1.5" marker-end="url(#arrow)" x1="123.7278320307754" y1="177.1223315074427" x2="121.59366163714675" y2="147.16281946980163"></line><line stroke-width="1.5" marker-end="url(#arrow)" x1="-58.60638987836151" y1="101.61620938959827" x2="-93.07205661283278" y2="111.63280401185978"></line></g><g stroke="#fff" stroke-width="1.5"><circle r="5" fill="#ff7f0e" cx="-23.676445086846577" cy="189.42117348246498"><title>0</title></circle><circle r="5" fill="#1f58b4" cx="4.806343139419879" cy="176.48184160777126"><title>1</title></circle><circle r="5" fill="#1f58b4" cx="37.145687840981054" cy="168.84679768278744"><title>2</title></circle><circle r="5" fill="#1f58b4" cx="24.788879555789684" cy="133.43824039748654"><title>3</title></circle><circle r="5" fill="#1f58b4" cx="11.017058291588969" cy="95.61479615906002"><title>4</title></circle><circle r="5" fill="#1f58b4" cx="-2.4529495024621375" cy="67.0089897871196"><title>5</title></circle><circle r="5" fill="#1f58b4" cx="-31.985698470702275" cy="80.6968969957481"><title>6</title></circle><circle r="5" fill="#1f58b4" cx="-58.60638987836151" cy="101.61620938959827"><title>7</title></circle><circle r="5" fill="#1f58b4" cx="-93.07205661283278" cy="111.63280401185978"><title>8</title></circle><circle r="5" fill="#1f58b4" cx="-128.6782797113273" cy="113.09780120810667"><title>9</title></circle><circle r="5" fill="#1f58b4" cx="-161.44133119816937" cy="106.56992102897819"><title>10</title></circle><circle r="5" fill="#1f58b4" cx="-191.03474438289496" cy="94.21089326186605"><title>11</title></circle><circle r="5" fill="#1f58b4" cx="-205.31830728322316" cy="119.88476372359494"><title>12</title></circle><circle r="5" fill="#1f58b4" cx="-201.64622393480903" cy="149.08676730548515"><title>13</title></circle><circle r="5" fill="#1f58b4" cx="-231.37462053112588" cy="143.75230807583006"><title>14</title></circle><circle r="5" fill="#1f58b4" cx="-262.124705515008" cy="140.92592628321412"><title>15</title></circle><circle r="5" fill="#1f58b4" cx="-242.3737667829148" cy="117.04808484679451"><title>16</title></circle><circle r="5" fill="#1f58b4" cx="-224.30432156337812" cy="91.3470967834355"><title>17</title></circle><circle r="5" fill="#1f58b4" cx="-255.18318884468775" cy="93.40558440334638"><title>18</title></circle><circle r="5" fill="#1f58b4" cx="-281.1195768742947" cy="110.01904285069062"><title>19</title></circle><circle r="5" fill="#2ca02c" cx="-289.9560592537878" cy="81.03417721149432"><title>20</title></circle><circle r="5" fill="#ff7f0e" cx="-88.40587263842887" cy="-188.08669652013634"><title>21</title></circle><circle r="5" fill="#1f58b4" cx="-55.256223501637315" cy="-179.36150447386078"><title>22</title></circle><circle r="5" fill="#2ca02c" cx="10.320741634201752" cy="-134.63716286118515"><title>23</title></circle><circle r="5" fill="#2ca02c" cx="25.774703377274296" cy="-199.16300822588485"><title>24</title></circle><circle r="5" fill="#2ca02c" cx="97.87894223848092" cy="-217.66269627023846"><title>25</title></circle><circle r="5" fill="#2ca02c" cx="73.2086447193464" cy="-178.4297308404835"><title>26</title></circle><circle r="5" fill="#ff7f0e" cx="-13.71668277808078" cy="-14.61492726743718"><title>27</title></circle><circle r="5" fill="#1f58b4" cx="7.624636619331828" cy="-40.16946975122767"><title>28</title></circle><circle r="5" fill="#ff7f0e" cx="43.237559719877346" cy="-23.088555348386826"><title>29</title></circle><circle r="5" fill="#ff7f0e" cx="-3.786259181177842" cy="116.15283772138646"><title>30</title></circle><circle r="5" fill="#1f58b4" cx="4.84728784982529" cy="147.07611751401365"><title>31</title></circle><circle r="5" fill="#ff7f0e" cx="54.794188191137124" cy="-296.60532118838483"><title>32</title></circle><circle r="5" fill="#1f58b4" cx="41.71608068014581" cy="-268.2839300585146"><title>33</title></circle><circle r="5" fill="#1f58b4" cx="8.225177663065622" cy="-246.56641275867835"><title>34</title></circle><circle r="5" fill="#ff7f0e" cx="-252.099029472758" cy="12.170410088581091"><title>35</title></circle><circle r="5" fill="#1f58b4" cx="-228.57027893474748" cy="-11.487520898656477"><title>36</title></circle><circle r="5" fill="#1f58b4" cx="-200.68814780875007" cy="-38.93086596399016"><title>37</title></circle><circle r="5" fill="#1f58b4" cx="-186.07013027284805" cy="-68.67864859684973"><title>38</title></circle><circle r="5" fill="#1f58b4" cx="-168.29915482564175" cy="-96.98747592988364"><title>39</title></circle><circle r="5" fill="#1f58b4" cx="-181.62707846008428" cy="-123.30905218756273"><title>40</title></circle><circle r="5" fill="#1f58b4" cx="-216.41090264335065" cy="-123.31367051929398"><title>41</title></circle><circle r="5" fill="#1f58b4" cx="-245.3469847008483" cy="-134.61557684948616"><title>42</title></circle><circle r="5" fill="#1f58b4" cx="-261.26953297413985" cy="-158.12859957692416"><title>43</title></circle><circle r="5" fill="#1f58b4" cx="-273.0906243753947" cy="-125.45896302594224"><title>44</title></circle><circle r="5" fill="#1f58b4" cx="-284.7904641430007" cy="-93.67315974893458"><title>45</title></circle><circle r="5" fill="#1f58b4" cx="-296.3920980311262" cy="-60.65954871539231"><title>46</title></circle><circle r="5" fill="#1f58b4" cx="-302.05208256287" cy="-25.456350134649497"><title>47</title></circle><circle r="5" fill="#1f58b4" cx="-300.5014629180787" cy="8.304144808548099"><title>48</title></circle><circle r="5" fill="#1f58b4" cx="-294.97773459691194" cy="39.17705015681408"><title>49</title></circle><circle r="5" fill="#1f58b4" cx="-271.4163599122541" cy="58.48794734318024"><title>50</title></circle><circle r="5" fill="#1f58b4" cx="-241.61724644049286" cy="66.6873594250203"><title>51</title></circle><circle r="5" fill="#ff7f0e" cx="94.66608818842256" cy="-91.93143400918504"><title>52</title></circle><circle r="5" fill="#1f58b4" cx="63.64451570804444" cy="-111.42353505247793"><title>53</title></circle><circle r="5" fill="#ff7f0e" cx="-72.45646572089204" cy="201.72518898823282"><title>54</title></circle><circle r="5" fill="#1f58b4" cx="-102.80240528440649" cy="199.7373005408982"><title>55</title></circle><circle r="5" fill="#1f58b4" cx="-129.3188764038606" cy="180.88133933404055"><title>56</title></circle><circle r="5" fill="#1f58b4" cx="-155.19088261910238" cy="162.82856544614327"><title>57</title></circle><circle r="5" fill="#1f58b4" cx="-156.5052553858439" cy="131.0752693066844"><title>58</title></circle><circle r="5" fill="#ff7f0e" cx="8.054918550560275" cy="225.00440277196688"><title>59</title></circle><circle r="5" fill="#1f58b4" cx="30.547087952926375" cy="202.9230489260018"><title>60</title></circle><circle r="5" fill="#ff7f0e" cx="-94.60020502354797" cy="-179.22510417329855"><title>61</title></circle><circle r="5" fill="#ff7f0e" cx="16.40198575483304" cy="0.4274152753419344"><title>62</title></circle><circle r="5" fill="#ff7f0e" cx="-20.073228577148342" cy="125.96264962101813"><title>63</title></circle><circle r="5" fill="#ff7f0e" cx="74.24722861606578" cy="-266.57794927503335"><title>64</title></circle><circle r="5" fill="#ff7f0e" cx="-260.08649473813574" cy="-2.9349556308060136"><title>65</title></circle><circle r="5" fill="#ff7f0e" cx="83.60268545171263" cy="-81.08957672225105"><title>66</title></circle><circle r="5" fill="#ff7f0e" cx="25.393757297668202" cy="235.14188250234156"><title>67</title></circle><circle r="5" fill="#ff7f0e" cx="245.5582175765632" cy="-99.14757340766234"><title>68</title></circle><circle r="5" fill="#1f58b4" cx="232.96395416186897" cy="-130.54347374945672"><title>69</title></circle><circle r="5" fill="#1f58b4" cx="193.02728880777588" cy="-165.77542108362817"><title>70</title></circle><circle r="5" fill="#1f58b4" cx="149.1618708539844" cy="-192.75655577294776"><title>71</title></circle><circle r="5" fill="#ff7f0e" cx="-13.471495623705275" cy="-64.46184054799244"><title>72</title></circle><circle r="5" fill="#ff7f0e" cx="-27.40724292751757" cy="144.40725480526842"><title>73</title></circle><circle r="5" fill="#ff7f0e" cx="-65.23632051481576" cy="-278.9683473823609"><title>74</title></circle><circle r="5" fill="#1f58b4" cx="-34.17751272678653" cy="-264.9759498267433"><title>75</title></circle><circle r="5" fill="#ff7f0e" cx="-237.56080179276802" cy="19.92209438197102"><title>76</title></circle><circle r="5" fill="#ff7f0e" cx="64.83541544580486" cy="-213.46996660578026"><title>77</title></circle><circle r="5" fill="#ff7f0e" cx="101.47797214945132" cy="-18.313720167048157"><title>78</title></circle><circle r="5" fill="#1f58b4" cx="128.1840803268434" cy="-35.475524962138806"><title>79</title></circle><circle r="5" fill="#1f58b4" cx="158.08974896705027" cy="-62.90786169925581"><title>80</title></circle><circle r="5" fill="#1f58b4" cx="196.33583550825117" cy="-68.3226514632322"><title>81</title></circle><circle r="5" fill="#1f58b4" cx="227.34526711705976" cy="-90.21708460794828"><title>82</title></circle><circle r="5" fill="#ff7f0e" cx="42.6580156806135" cy="232.60808305695767"><title>83</title></circle><circle r="5" fill="#ff7f0e" cx="264.92650667507985" cy="-119.993440582451"><title>84</title></circle><circle r="5" fill="#ff7f0e" cx="-11.148678258716963" cy="-4.762005170076185"><title>85</title></circle><circle r="5" fill="#ff7f0e" cx="-67.77158805453412" cy="-263.73862524864916"><title>86</title></circle><circle r="5" fill="#ff7f0e" cx="-156.67955608113513" cy="2.2534040241129394"><title>87</title></circle><circle r="5" fill="#1f58b4" cx="-170.45339698543813" cy="-27.00935550999728"><title>88</title></circle><circle r="5" fill="#ff7f0e" cx="93.98280951178572" cy="-149.38195619772017"><title>89</title></circle><circle r="5" fill="#ff7f0e" cx="113.50303059528436" cy="-5.440321570175309"><title>90</title></circle><circle r="5" fill="#ff7f0e" cx="164.73684086659705" cy="15.972900053705295"><title>91</title></circle><circle r="5" fill="#1f58b4" cx="192.24680407921468" cy="31.215001875828754"><title>92</title></circle><circle r="5" fill="#1f58b4" cx="225.83991900784125" cy="36.23713636313711"><title>93</title></circle><circle r="5" fill="#1f58b4" cx="188.9060142905352" cy="56.67347387037909"><title>94</title></circle><circle r="5" fill="#2ca02c" cx="146.3502449311415" cy="69.35321012212951"><title>95</title></circle><circle r="5" fill="#2ca02c" cx="109.11955617593178" cy="65.72955285976833"><title>96</title></circle><circle r="5" fill="#2ca02c" cx="80.21257397025644" cy="50.668699506794916"><title>97</title></circle><circle r="5" fill="#2ca02c" cx="114.60614197202061" cy="48.75221251416218"><title>98</title></circle><circle r="5" fill="#ff7f0e" cx="33.974904351130846" cy="99.30603485349813"><title>99</title></circle><circle r="5" fill="#1f58b4" cx="48.046765929736594" cy="128.52338660761387"><title>100</title></circle><circle r="5" fill="#ff7f0e" cx="231.16428400840368" cy="-161.46645808936248"><title>101</title></circle><circle r="5" fill="#ff7f0e" cx="-24.428072861094257" cy="-49.73897165601486"><title>102</title></circle><circle r="5" fill="#ff7f0e" cx="-53.01097153173592" cy="-291.4187253837845"><title>103</title></circle><circle r="5" fill="#ff7f0e" cx="-142.7609620726085" cy="-12.743402085119108"><title>104</title></circle><circle r="5" fill="#ff7f0e" cx="96.17972228056738" cy="-203.4093740715202"><title>105</title></circle><circle r="5" fill="#ff7f0e" cx="131.32933294518477" cy="-3.3971925801426544"><title>106</title></circle><circle r="5" fill="#ff7f0e" cx="107.24102429638529" cy="-166.0692623308504"><title>107</title></circle><circle r="5" fill="#ff7f0e" cx="169.20277870740537" cy="53.43996638952917"><title>108</title></circle><circle r="5" fill="#ff7f0e" cx="50.66439405368955" cy="94.90253112411577"><title>109</title></circle><circle r="5" fill="#ff7f0e" cx="172.55606064634486" cy="-153.1922454005202"><title>110</title></circle><circle r="5" fill="#1f58b4" cx="195.00601238914714" cy="-132.04727833462704"><title>111</title></circle><circle r="5" fill="#ff7f0e" cx="-176.3683369411069" cy="3.1724491868492986"><title>112</title></circle><circle r="5" fill="#ff7f0e" cx="-45.044768096471856" cy="-212.902664956257"><title>113</title></circle><circle r="5" fill="#ff7f0e" cx="179.35995535179202" cy="-14.301707410217823"><title>114</title></circle><circle r="5" fill="#1f58b4" cx="185.27334102964804" cy="-44.803677015744505"><title>115</title></circle><circle r="5" fill="#ff7f0e" cx="46.5145715033793" cy="-199.0667165966418"><title>116</title></circle><circle r="5" fill="#ff7f0e" cx="159.8265869535342" cy="34.96925756891097"><title>117</title></circle><circle r="5" fill="#ff7f0e" cx="66.75493195486598" cy="102.72332510003285"><title>118</title></circle><circle r="5" fill="#ff7f0e" cx="163.37405732888183" cy="-130.40921609109347"><title>119</title></circle><circle r="5" fill="#ff7f0e" cx="-31.721057514427326" cy="-157.0331706140548"><title>120</title></circle><circle r="5" fill="#ff7f0e" cx="154.07353268737242" cy="-44.40857475535091"><title>121</title></circle><circle r="5" fill="#ff7f0e" cx="-51.34605111504265" cy="-99.86983275606919"><title>122</title></circle><circle r="5" fill="#1f58b4" cx="-27.992266086443845" cy="-122.23215934866313"><title>123</title></circle><circle r="5" fill="#ff7f0e" cx="108.78465117985756" cy="-176.43302479761394"><title>124</title></circle><circle r="5" fill="#ff7f0e" cx="257.9301746000666" cy="-32.62335089531549"><title>125</title></circle><circle r="5" fill="#1f58b4" cx="252.52994107813265" cy="1.1527389872312834"><title>126</title></circle><circle r="5" fill="#ff7f0e" cx="218.99577389881614" cy="-112.919111257374"><title>127</title></circle><circle r="5" fill="#ff7f0e" cx="-164.26722131414434" cy="-228.45884412840084"><title>128</title></circle><circle r="5" fill="#1f58b4" cx="-148.01805822564853" cy="-199.18873189324896"><title>129</title></circle><circle r="5" fill="#1f58b4" cx="-147.62179096438638" cy="-153.3850944953022"><title>130</title></circle><circle r="5" fill="#1f58b4" cx="-137.3148372567493" cy="-110.8871398011344"><title>131</title></circle><circle r="5" fill="#ff7f0e" cx="-127.28744919200795" cy="-66.19136389297111"><title>132</title></circle><circle r="5" fill="#1f58b4" cx="-162.41832205661868" cy="-53.95905812674177"><title>133</title></circle><circle r="5" fill="#ff7f0e" cx="-79.61732420864524" cy="-153.1303119518066"><title>134</title></circle><circle r="5" fill="#ff7f0e" cx="161.87623637816682" cy="-23.40777172766683"><title>135</title></circle><circle r="5" fill="#ff7f0e" cx="258.0126193388364" cy="-106.76361594203466"><title>136</title></circle><circle r="5" fill="#ff7f0e" cx="-62.60398778879892" cy="-109.92788737867478"><title>137</title></circle><circle r="5" fill="#ff7f0e" cx="-50.22951649960473" cy="-147.9580413095982"><title>138</title></circle><circle r="5" fill="#ff7f0e" cx="272.331803036668" cy="-26.740280322557066"><title>139</title></circle><circle r="5" fill="#ff7f0e" cx="156.2086693810018" cy="-220.68001352969475"><title>140</title></circle><circle r="5" fill="#1f58b4" cx="182.59406260060712" cy="-201.61265981630075"><title>141</title></circle><circle r="5" fill="#ff7f0e" cx="-133.6134359009352" cy="-228.6223770938604"><title>142</title></circle><circle r="5" fill="#ff7f0e" cx="33.052092140666524" cy="-19.564056447480226"><title>143</title></circle><circle r="5" fill="#ff7f0e" cx="252.59173009752897" cy="-155.45117007357507"><title>144</title></circle><circle r="5" fill="#ff7f0e" cx="-62.97547360630147" cy="-122.3676052392206"><title>145</title></circle><circle r="5" fill="#ff7f0e" cx="-89.90209602715566" cy="-199.2114558970202"><title>146</title></circle><circle r="5" fill="#ff7f0e" cx="257.48568618304165" cy="124.56999907001827"><title>147</title></circle><circle r="5" fill="#1f58b4" cx="228.8922939310875" cy="137.24522821932405"><title>148</title></circle><circle r="5" fill="#2ca02c" cx="206.48329039326077" cy="160.6419354728495"><title>149</title></circle><circle r="5" fill="#2ca02c" cx="194.30325877033604" cy="130.80998464730945"><title>150</title></circle><circle r="5" fill="#2ca02c" cx="177.88845014805906" cy="156.16743633442115"><title>151</title></circle><circle r="5" fill="#2ca02c" cx="186.92438035045" cy="186.1738448750942"><title>152</title></circle><circle r="5" fill="#ff7f0e" cx="282.3081393695375" cy="-14.86938687945344"><title>153</title></circle><circle r="5" fill="#ff7f0e" cx="201.5480901199026" cy="-226.54937272495138"><title>154</title></circle><circle r="5" fill="#ff7f0e" cx="95.0871342824179" cy="161.5362952791585"><title>155</title></circle><circle r="5" fill="#1f58b4" cx="121.59366163714675" cy="147.16281946980163"><title>156</title></circle><circle r="5" fill="#1f58b4" cx="150.8399123379381" cy="149.36780931903672"><title>157</title></circle><circle r="5" fill="#1f58b4" cx="155.4537196703202" cy="108.79985140578377"><title>158</title></circle><circle r="5" fill="#ff7f0e" cx="54.6583821875239" cy="-208.7857379202888"><title>159</title></circle><circle r="5" fill="#ff7f0e" cx="220.9761430588338" cy="-27.16085508041117"><title>160</title></circle><circle r="5" fill="#1f58b4" cx="224.16116319834006" cy="4.693792207118625"><title>161</title></circle><circle r="5" fill="#ff7f0e" cx="-76.45019171620494" cy="3.733593645949768"><title>162</title></circle><circle r="5" fill="#1f58b4" cx="-89.83994572260367" cy="30.83445351306826"><title>163</title></circle><circle r="5" fill="#1f58b4" cx="-121.13246654054561" cy="20.77567400759643"><title>164</title></circle><circle r="5" fill="#1f58b4" cx="-118.1224734532711" cy="-21.87865764409904"><title>165</title></circle><circle r="5" fill="#ff7f0e" cx="-148.9973244113582" cy="-232.97707607397442"><title>166</title></circle><circle r="5" fill="#ff7f0e" cx="42.29381678520711" cy="-46.142594851734046"><title>167</title></circle><circle r="5" fill="#ff7f0e" cx="264.44883440339504" cy="-137.49159812770637"><title>168</title></circle><circle r="5" fill="#ff7f0e" cx="31.126368307770406" cy="-82.13137886603047"><title>169</title></circle><circle r="5" fill="#1f58b4" cx="31.08048589611188" cy="-111.54855416498549"><title>170</title></circle><circle r="5" fill="#ff7f0e" cx="-63.46332574984925" cy="233.3635057291097"><title>171</title></circle><circle r="5" fill="#1f58b4" cx="-33.63310647600942" cy="241.86280703571617"><title>172</title></circle><circle r="5" fill="#1f58b4" cx="-25.99111575426197" cy="274.1343192116899"><title>173</title></circle><circle r="5" fill="#1f58b4" cx="-58.35060001528987" cy="262.10232916949974"><title>174</title></circle><circle r="5" fill="#1f58b4" cx="-93.13415361858766" cy="257.82600823877067"><title>175</title></circle><circle r="5" fill="#1f58b4" cx="-123.48071184672409" cy="265.8132628967467"><title>176</title></circle><circle r="5" fill="#1f58b4" cx="-152.4360884879809" cy="257.2628697180549"><title>177</title></circle><circle r="5" fill="#1f58b4" cx="-179.89296515332222" cy="242.54568405865732"><title>178</title></circle><circle r="5" fill="#1f58b4" cx="-205.4230364648819" cy="223.04358183275684"><title>179</title></circle><circle r="5" fill="#1f58b4" cx="-228.72008902511902" cy="201.4248621124652"><title>180</title></circle><circle r="5" fill="#1f58b4" cx="-243.58542648710556" cy="173.92156440625334"><title>181</title></circle><circle r="5" fill="#1f58b4" cx="-212.86093848152797" cy="176.52876066552355"><title>182</title></circle><circle r="5" fill="#1f58b4" cx="-182.85132970928876" cy="171.3400643932409"><title>183</title></circle><circle r="5" fill="#ff7f0e" cx="240.72881731845806" cy="164.84834299810228"><title>184</title></circle><circle r="5" fill="#ff7f0e" cx="-88.61926497311795" cy="-170.06381623280174"><title>185</title></circle><circle r="5" fill="#ff7f0e" cx="292.0383883233649" cy="20.88286384843688"><title>186</title></circle><circle r="5" fill="#1f58b4" cx="261.1369763061477" cy="30.992336390660583"><title>187</title></circle><circle r="5" fill="#ff7f0e" cx="167.14727981524797" cy="-231.57699366936856"><title>188</title></circle><circle r="5" fill="#ff7f0e" cx="93.7845603712167" cy="133.18458080553177"><title>189</title></circle><circle r="5" fill="#ff7f0e" cx="42.22612066577178" cy="-166.41969042281346"><title>190</title></circle><circle r="5" fill="#ff7f0e" cx="199.56257841626325" cy="-11.192070962460866"><title>191</title></circle><circle r="5" fill="#ff7f0e" cx="-219.2282966812721" cy="26.723622327640083"><title>192</title></circle><circle r="5" fill="#1f58b4" cx="-202.93198274474508" cy="-1.773844869243576"><title>193</title></circle><circle r="5" fill="#ff7f0e" cx="-101.16258333723584" cy="2.09219662981748"><title>194</title></circle><circle r="5" fill="#ff7f0e" cx="-181.92288551810432" cy="-216.70526719590077"><title>195</title></circle><circle r="5" fill="#1f58b4" cx="-171.70117650789965" cy="-185.82482160335965"><title>196</title></circle><circle r="5" fill="#ff7f0e" cx="-25.516168601279983" cy="-27.580302757465912"><title>197</title></circle><circle r="5" fill="#ff7f0e" cx="201.3858885729912" cy="-100.67073109831415"><title>198</title></circle><circle r="5" fill="#ff7f0e" cx="60.50253829823786" cy="-95.80249486416342"><title>199</title></circle><circle r="5" fill="#ff7f0e" cx="-6.490070965484571" cy="256.01296482827036"><title>200</title></circle><circle r="5" fill="#ff7f0e" cx="258.82293480267674" cy="146.49951652590934"><title>201</title></circle><circle r="5" fill="#ff7f0e" cx="34.10283215332127" cy="-8.894190283229854"><title>202</title></circle><circle r="5" fill="#ff7f0e" cx="281.55889776980325" cy="6.7080007586374775"><title>203</title></circle><circle r="5" fill="#ff7f0e" cx="123.7278320307754" cy="177.1223315074427"><title>204</title></circle><circle r="5" fill="#ff7f0e" cx="238.83410193120662" cy="-23.56219620057227"><title>205</title></circle><circle r="5" fill="#ff7f0e" cx="-185.60254475027503" cy="25.916514664949773"><title>206</title></circle><circle r="5" fill="#ff7f0e" cx="-58.908102534140255" cy="38.47737257235891"><title>207</title></circle><circle r="5" fill="#ff7f0e" cx="-203.86136767662532" cy="-193.1608970012146"><title>208</title></circle><circle r="5" fill="#ff7f0e" cx="168.75491881109326" cy="-112.71430663706518"><title>209</title></circle><circle r="5" fill="#ff7f0e" cx="50.74826818277776" cy="-84.5696455082549"><title>210</title></circle><circle r="5" fill="#ff7f0e" cx="-42.947320531417006" cy="212.6344236158375"><title>211</title></circle><circle r="5" fill="#ff7f0e" cx="159.04380136104737" cy="196.6529656683259"><title>212</title></circle><circle r="5" fill="#ff7f0e" cx="34.25821184964103" cy="-58.22439032685426"><title>213</title></circle><circle r="5" fill="#ff7f0e" cx="291.23333388445354" cy="40.80135195479573"><title>214</title></circle><circle r="5" fill="#ff7f0e" cx="111.30231234903707" cy="96.47812349998136"><title>215</title></circle><circle r="5" fill="#1f58b4" cx="134.72761188669716" cy="118.88512763227567"><title>216</title></circle><circle r="5" fill="#ff7f0e" cx="-26.569277104489714" cy="-198.59570820701305"><title>217</title></circle><circle r="5" fill="#ff7f0e" cx="283.17409626075727" cy="62.98193485185046"><title>218</title></circle><circle r="5" fill="#1f58b4" cx="251.77183844024432" cy="60.30695940024671"><title>219</title></circle><circle r="5" fill="#ff7f0e" cx="-203.00942744164658" cy="31.46563615534918"><title>220</title></circle><circle r="5" fill="#ff7f0e" cx="-156.67727562261544" cy="75.40567243967911"><title>221</title></circle><circle r="5" fill="#1f58b4" cx="-142.59555238849734" cy="47.543032774973746"><title>222</title></circle><circle r="5" fill="#ff7f0e" cx="82.28635152692088" cy="-145.4785981870175"><title>223</title></circle><circle r="5" fill="#ff7f0e" cx="-196.7382737270403" cy="-207.87891125098372"><title>224</title></circle><circle r="5" fill="#ff7f0e" cx="182.15931465713427" cy="-102.24554676988879"><title>225</title></circle><circle r="5" fill="#ff7f0e" cx="-57.124875499688784" cy="-74.94653727590783"><title>226</title></circle><circle r="5" fill="#1f58b4" cx="-27.907269153139428" cy="-98.0265681951971"><title>227</title></circle><circle r="5" fill="#ff7f0e" cx="28.17567512971287" cy="308.74762570386406"><title>228</title></circle><circle r="5" fill="#1f58b4" cx="9.215517527717743" cy="285.0347221159679"><title>229</title></circle><circle r="5" fill="#ff7f0e" cx="174.76010258631766" cy="215.75832122159105"><title>230</title></circle><circle r="5" fill="#ff7f0e" cx="8.215745098632555" cy="-6.99373410124811"><title>231</title></circle><circle r="5" fill="#ff7f0e" cx="-131.20666912245895" cy="210.96438246716545"><title>232</title></circle><circle r="5" fill="#1f58b4" cx="-157.81996124312468" cy="195.4171340032693"><title>233</title></circle><circle r="5" fill="#ff7f0e" cx="130.845040830246" cy="88.14742440096398"><title>234</title></circle><circle r="5" fill="#ff7f0e" cx="-23.069777607725413" cy="-171.27002332467995"><title>235</title></circle><circle r="5" fill="#ff7f0e" cx="260.77183772056003" cy="90.77177692825128"><title>236</title></circle><circle r="5" fill="#ff7f0e" cx="-232.47087648986036" cy="-96.49593767589865"><title>237</title></circle><circle r="5" fill="#1f58b4" cx="-220.32715923542992" cy="-67.31580816798963"><title>238</title></circle><circle r="5" fill="#ff7f0e" cx="-171.79205615396828" cy="59.258227801709616"><title>239</title></circle><circle r="5" fill="#ff7f0e" cx="85.1273423564793" cy="-210.45447940530198"><title>240</title></circle><circle r="5" fill="#ff7f0e" cx="108.0986077882651" cy="-186.9633552993062"><title>241</title></circle><circle r="5" fill="#ff7f0e" cx="-203.29031169432972" cy="-140.39158024635202"><title>242</title></circle><circle r="5" fill="#1f58b4" cx="-177.01383590221806" cy="-155.13659014712132"><title>243</title></circle><circle r="5" fill="#ff7f0e" cx="182.81668289088216" cy="-234.25075463919765"><title>244</title></circle><circle r="5" fill="#ff7f0e" cx="-64.10804230376877" cy="-86.22787349461177"><title>245</title></circle><circle r="5" fill="#ff7f0e" cx="40.99779312071847" cy="292.89630795290367"><title>246</title></circle><circle r="5" fill="#ff7f0e" cx="-183.66920908329965" cy="209.74186482551124"><title>247</title></circle><circle r="5" fill="#ff7f0e" cx="103.86996781070329" cy="112.65626390485919"><title>248</title></circle><circle r="5" fill="#ff7f0e" cx="-65.59295096818556" cy="-212.58010132158682"><title>249</title></circle><circle r="5" fill="#ff7f0e" cx="276.7443353337005" cy="81.12627343823851"><title>250</title></circle><circle r="5" fill="#ff7f0e" cx="-247.55865449815113" cy="-83.19131831372563"><title>251</title></circle><circle r="5" fill="#ff7f0e" cx="-132.38571902078928" cy="76.54113285900348"><title>252</title></circle><circle r="5" fill="#ff7f0e" cx="40.409058220000354" cy="-182.4158540231495"><title>253</title></circle><circle r="5" fill="#ff7f0e" cx="104.91591345274018" cy="-196.94716470800302"><title>254</title></circle><circle r="5" fill="#ff7f0e" cx="-209.31290747597163" cy="-159.53729237502193"><title>255</title></circle><circle r="5" fill="#ff7f0e" cx="210.2466412506405" cy="-187.00400403428418"><title>256</title></circle><circle r="5" fill="#ff7f0e" cx="83.53524673407848" cy="209.43447355516668"><title>257</title></circle><circle r="5" fill="#1f58b4" cx="66.64698391107432" cy="182.36946405715574"><title>258</title></circle><circle r="5" fill="#ff7f0e" cx="39.00778621895539" cy="275.15903452109984"><title>259</title></circle><circle r="5" fill="#ff7f0e" cx="193.16528274614768" cy="222.1820334143193"><title>260</title></circle><circle r="5" fill="#1f58b4" cx="211.25933943175485" cy="195.40464926570775"><title>261</title></circle><circle r="5" fill="#ff7f0e" cx="-45.79423721613354" cy="-68.83766916143713"><title>262</title></circle><circle r="5" fill="#ff7f0e" cx="-150.39983147033846" cy="225.36805137206414"><title>263</title></circle><circle r="5" fill="#ff7f0e" cx="136.71808921549146" cy="232.1931162120208"><title>264</title></circle><circle r="5" fill="#1f58b4" cx="138.14754177980186" cy="197.60910929570085"><title>265</title></circle><circle r="5" fill="#ff7f0e" cx="42.85895138165882" cy="-34.796803727289934"><title>266</title></circle><circle r="5" fill="#ff7f0e" cx="193.29415112729222" cy="87.53665154765532"><title>267</title></circle><circle r="5" fill="#1f58b4" cx="218.0613237860204" cy="68.36163855318559"><title>268</title></circle><circle r="5" fill="#ff7f0e" cx="-203.4808217247876" cy="-92.71270821626503"><title>269</title></circle><circle r="5" fill="#ff7f0e" cx="-103.80039793096252" cy="85.76977293050673"><title>270</title></circle><circle r="5" fill="#1f58b4" cx="-104.20179283650697" cy="54.529607896286706"><title>271</title></circle><circle r="5" fill="#ff7f0e" cx="-88.22082184056308" cy="-159.7102398413889"><title>272</title></circle><circle r="5" fill="#ff7f0e" cx="75.13989786434908" cy="-215.36559371427418"><title>273</title></circle><circle r="5" fill="#ff7f0e" cx="-201.75496439561857" cy="-174.34479647504116"><title>274</title></circle><circle r="5" fill="#ff7f0e" cx="213.8111738348896" cy="-206.93528096316632"><title>275</title></circle><circle r="5" fill="#ff7f0e" cx="66.28787697538641" cy="151.81990947616384"><title>276</title></circle><circle r="5" fill="#ff7f0e" cx="-81.17278241132018" cy="299.06457913948174"><title>277</title></circle><circle r="5" fill="#1f58b4" cx="-50.25542491770988" cy="294.98194780291317"><title>278</title></circle><circle r="5" fill="#ff7f0e" cx="210.51383350927227" cy="226.51402217117848"><title>279</title></circle><circle r="5" fill="#ff7f0e" cx="-74.22180306078118" cy="156.3480913934173"><title>280</title></circle><circle r="5" fill="#1f58b4" cx="-105.49425423773833" cy="159.02177147353686"><title>281</title></circle><circle r="5" fill="#ff7f0e" cx="122.80490003825844" cy="227.07759957158518"><title>282</title></circle><circle r="5" fill="#ff7f0e" cx="-0.2780459958512068" cy="-0.9462893132953837"><title>283</title></circle><circle r="5" fill="#ff7f0e" cx="214.52704899509902" cy="99.43754419697643"><title>284</title></circle><circle r="5" fill="#ff7f0e" cx="-262.5737426497451" cy="-25.318594022261475"><title>285</title></circle><circle r="5" fill="#1f58b4" cx="-235.2010965071958" cy="-41.486395782714446"><title>286</title></circle><circle r="5" fill="#ff7f0e" cx="67.92342480660358" cy="-145.56956238942652"><title>287</title></circle><circle r="5" fill="#ff7f0e" cx="-80.49700381881595" cy="76.00450409425225"><title>288</title></circle><circle r="5" fill="#ff7f0e" cx="-68.16064220570689" cy="-148.43890773242904"><title>289</title></circle><circle r="5" fill="#ff7f0e" cx="-34.48201588693425" cy="-207.91795653086083"><title>290</title></circle><circle r="5" fill="#ff7f0e" cx="95.5859732372015" cy="193.80397108539634"><title>291</title></circle><circle r="5" fill="#ff7f0e" cx="-77.4792984004361" cy="279.524742229591"><title>292</title></circle><circle r="5" fill="#ff7f0e" cx="-25.823615198698548" cy="-294.46930445349346"><title>293</title></circle><circle r="5" fill="#1f58b4" cx="-0.6184454654215726" cy="-276.428217749578"><title>294</title></circle><circle r="5" fill="#ff7f0e" cx="240.61147863720728" cy="190.46726013387647"><title>295</title></circle><circle r="5" fill="#ff7f0e" cx="-84.36782004803315" cy="136.52698078293517"><title>296</title></circle><circle r="5" fill="#ff7f0e" cx="151.26398023595738" cy="228.1510564650409"><title>297</title></circle><circle r="5" fill="#ff7f0e" cx="9.59940318971666" cy="-71.46864195303941"><title>298</title></circle><circle r="5" fill="#ff7f0e" cx="236.75180750743925" cy="93.03974987994206"><title>299</title></circle><circle r="5" fill="#ff7f0e" cx="-267.0658580591142" cy="-44.33709849351951"><title>300</title></circle><circle r="5" fill="#ff7f0e" cx="52.39214717447765" cy="-153.11039841947144"><title>301</title></circle><circle r="5" fill="#ff7f0e" cx="-72.22503599025237" cy="58.127208252194755"><title>302</title></circle><circle r="5" fill="#ff7f0e" cx="-76.33452643306092" cy="-213.0019344209811"><title>303</title></circle><circle r="5" fill="#ff7f0e" cx="-55.77974070121307" cy="-216.33539621345668"><title>304</title></circle><circle r="5" fill="#ff7f0e" cx="86.86692769496473" cy="233.4504944952599"><title>305</title></circle><circle r="5" fill="#1f58b4" cx="59.46868536675459" cy="212.489338495171"><title>306</title></circle><circle r="5" fill="#ff7f0e" cx="-20.91412325788683" cy="303.21097857139324"><title>307</title></circle><circle r="5" fill="#ff7f0e" cx="22.52138754292902" cy="-296.41563870874467"><title>308</title></circle><circle r="5" fill="#ff7f0e" cx="-132.54658517944625" cy="-44.575830856022336"><title>309</title></circle><circle r="5" fill="#ff7f0e" cx="-131.63330286356452" cy="144.19567094760797"><title>310</title></circle><circle r="5" fill="#ff7f0e" cx="-6.236164524856136" cy="205.2083471707547"><title>311</title></circle><circle r="5" fill="#ff7f0e" cx="-257.8813170315192" cy="-63.139727309680175"><title>312</title></circle><circle r="5" fill="#ff7f0e" cx="102.72284326325062" cy="-156.56563670378767"><title>313</title></circle><circle r="5" fill="#ff7f0e" cx="23.172912462889002" cy="-8.18743633261694"><title>314</title></circle><circle r="5" fill="#ff7f0e" cx="-79.74760257676746" cy="-202.72512933755252"><title>315</title></circle><circle r="5" fill="#ff7f0e" cx="60.49031766846774" cy="246.8407568227165"><title>316</title></circle><circle r="5" fill="#ff7f0e" cx="-4.02147658469069" cy="-306.6358780394735"><title>317</title></circle><circle r="5" fill="#ff7f0e" cx="-146.59479493839532" cy="-80.28802955243228"><title>318</title></circle><circle r="5" fill="#ff7f0e" cx="-79.99923818655466" cy="179.47170078922744"><title>319</title></circle><circle r="5" fill="#ff7f0e" cx="-25.787691271843784" cy="168.38659142636635"><title>320</title></circle><circle r="5" fill="#ff7f0e" cx="-21.967596093927558" cy="-186.20075869852366"><title>321</title></circle><circle r="5" fill="#ff7f0e" cx="-24.54024660074985" cy="-16.69663213818401"><title>322</title></circle><circle r="5" fill="#ff7f0e" cx="-29.075698846034605" cy="-37.71027223555987"><title>323</title></circle><circle r="5" fill="#ff7f0e" cx="75.82534528223482" cy="243.97539785422313"><title>324</title></circle><circle r="5" fill="#ff7f0e" cx="71.20809654449916" cy="-283.2630872044477"><title>325</title></circle><circle r="5" fill="#ff7f0e" cx="98.62821792991653" cy="-106.80284704174301"><title>326</title></circle><circle r="5" fill="#ff7f0e" cx="-107.43786631745488" cy="229.76805884050168"><title>327</title></circle></g></svg>
